<?xml version="1.0" encoding="UTF-8" standalone="no"?>
<!DOCTYPE svg PUBLIC "-//W3C//DTD SVG 1.1//EN" "http://www.w3.org/Graphics/SVG/1.1/DTD/svg11.dtd">
<svg width="100%" height="100%" viewBox="0 0 128 64" version="1.1" xmlns="http://www.w3.org/2000/svg" xmlns:xlink="http://www.w3.org/1999/xlink" xml:space="preserve" xmlns:serif="http://www.serif.com/" style="fill-rule:evenodd;clip-rule:evenodd;stroke-linejoin:round;stroke-miterlimit:2;">
    <g id="Lospec">
        <path d="M128,16L128,48C128,56.831 120.831,64 112,64L16,64C7.169,64 0,56.831 0,48L0,16C0,7.169 7.169,0 16,0L112,0C120.831,0 128,7.169 128,16Z" style="fill:rgb(51,47,53);"/>
        <g transform="matrix(1.99039,0,0,1.99039,51.0624,12.0961)">
            <path d="M7,16L6,16L6,0L0,0L0,20L13,20L13,13L7,13L7,16Z" style="fill:rgb(234,234,234);fill-rule:nonzero;"/>
        </g>
    </g>
</svg>
