<?xml version="1.0" encoding="UTF-8" standalone="no"?>
<!DOCTYPE svg PUBLIC "-//W3C//DTD SVG 1.1//EN" "http://www.w3.org/Graphics/SVG/1.1/DTD/svg11.dtd">
<svg width="100%" height="100%" viewBox="0 0 128 64" version="1.1" xmlns="http://www.w3.org/2000/svg" xmlns:xlink="http://www.w3.org/1999/xlink" xml:space="preserve" xmlns:serif="http://www.serif.com/" style="fill-rule:evenodd;clip-rule:evenodd;stroke-linejoin:round;stroke-miterlimit:2;">
    <g id="Sketchfab">
        <path d="M128,16L128,48C128,56.831 120.831,64 112,64L16,64C7.169,64 0,56.831 0,48L0,16C0,7.169 7.169,0 16,0L112,0C120.831,0 128,7.169 128,16Z" style="fill:rgb(28,170,217);"/>
        <g transform="matrix(0.156673,0,0,0.156673,31.573,-0.428913)">
            <path d="M189,330.18L99.78,278.67L99.78,174.74L189,223L189,330.18ZM204.9,198.49L99.3,142.49L204.9,81.49L310.51,142.49L204.9,198.49ZM310.6,278.86L221.69,330.2L221.69,223.36L310.6,175.36L310.6,278.86Z" style="fill:white;fill-rule:nonzero;"/>
        </g>
    </g>
</svg>
